<?xml version="1.0" encoding="utf-8"?>
<!-- Generator: Adobe Illustrator 26.0.0, SVG Export Plug-In . SVG Version: 6.00 Build 0)  -->
<svg version="1.1" id="Capa_1" xmlns="http://www.w3.org/2000/svg" xmlns:xlink="http://www.w3.org/1999/xlink" x="0px" y="0px"
	 viewBox="0 0 130 40" style="enable-background:new 0 0 130 40;" xml:space="preserve">
<style type="text/css">
	.st0{fill:#004EFF;}
	.st1{fill:#51CA41;}
</style>
<path class="st0" d="M2.5,27v-8.6H0v-6h2.5V7H10v5.4h5v6h-5v7.2c0,1.5,0.7,2.1,2,2.1c1,0,1.9-0.3,2.8-0.7v5.8
	c-1.3,0.7-3.1,1.2-5.2,1.2C5.2,34,2.5,32.1,2.5,27z"/>
<path class="st0" d="M21.8,27.5L21.8,27.5c0-4.5,3.3-6.8,8.3-6.8c2,0,3.9,0.4,5.1,0.8v-0.4c0-2.2-1.4-3.5-4.2-3.5
	c-2.2,0-4,0.4-5.9,1.2l-1.5-5.3c2.4-1,5-1.6,8.6-1.6c3.8,0,6.4,0.9,8.1,2.6c1.6,1.6,2.3,3.8,2.3,6.8v12.2h-7.4v-2.2
	c-1.5,1.6-3.5,2.7-6.2,2.7C24.9,34.1,21.8,31.8,21.8,27.5z M35.3,25.9v-1c-0.7-0.3-1.8-0.5-2.9-0.5c-2.2,0-3.4,1.1-3.4,2.6v0.1
	c0,1.5,1.1,2.3,2.6,2.3C33.8,29.4,35.3,28,35.3,25.9z"/>
<path class="st0" d="M48,30.9l2.8-4.5c2.4,1.6,5.1,2.4,7.3,2.4c1.3,0,1.9-0.4,1.9-1.1v-0.1c0-0.8-1.2-1.2-3.4-1.8
	c-4.2-1.1-7.5-2.5-7.5-6.8V19c0-4.5,3.6-7,8.5-7c3.1,0,6.3,0.9,8.8,2.5l-2.6,4.7c-2.2-1.2-4.6-2-6.3-2c-1.1,0-1.7,0.4-1.7,1v0.1
	c0,0.8,1.2,1.2,3.5,1.9c4.2,1.2,7.5,2.6,7.5,6.8V27c0,4.7-3.5,7.1-8.7,7.1C54.5,34.1,51,33.1,48,30.9z"/>
<path class="st0" d="M74,4.9h7.5v14.5l5.8-7.1h8.5l-7.4,8.5l7.6,12.7h-8.2l-4.3-7.2l-1.9,2.2v5H74V4.9z"/>
<path class="st0" d="M117.6,33.1c-1.8,4.9-3.9,6.9-8.1,6.9c-2.6,0-4.9-0.7-6.8-1.8l2.3-5.2c1.2,0.7,2.4,1.1,3.3,1.1
	c0.7,0,1.3-0.2,1.7-0.9"/>
<polygon class="st1" points="121.6,0 117.7,12.4 113.7,25.2 109.4,12.4 101.6,12.4 109.9,33.2 117.6,33.1 130,0 "/>
</svg>
